# xmcd
#
# Track frame offsets:
#	182
#	21847
#	34732
#	47325
#	62707
#	73790
#	86717
#	97990
#	110292
#	127047
#	137440
#	153020
#	171470
#	184240
#	197075
#	213440
#	224217
#	237995
#
# Disc length: 3355 seconds
#
# Revision: 2
# Processed by: cddbd v1.5.2PL0 Copyright (c) Steve Scherf et al.
# Submitted via: audiograbber 1.83.01
#
DISCID=060d1912
DTITLE=Jonny Hill - Ruf Teddybäer eins vier
DYEAR=1991
DGENRE=Country
TTITLE0=Ruf Teddybär 1-4
TTITLE1=Mein Lied für dich
TTITLE2=500 Meilen von zu Haus ( 500 Miles Away From Home )
TTITLE3=Lucille
TTITLE4=Ich fahr' meine Tour ( Six Days on The Road )
TTITLE5=Es sind nur Erinnerungen ( I Recall A Gipsy Woman )
TTITLE6=Tennessee Waltz
TTITLE7=Der Zug, der heimwärts geht ( A Train That Never Runs )
TTITLE8=Rosen für Mama
TTITLE9=König der Landstraße ( King Of The Road )
TTITLE10=Pack doch deine Koffer
TTITLE11=Sylvia's Mutter ( Sylvia's Mother )
TTITLE12=Mein bester Freund
TTITLE13=Kann Liebe alles verzeih'n ( Some Broken Hearts Never Mend )
TTITLE14=Dann gehst du allein nach Hause
TTITLE15=Adios Amigo
TTITLE16=Ich werde geh'n ( Long Gone )
TTITLE17=Ich lösch das Licht aus ( Dreaming My Dreams )
EXTD=
EXTT0=
EXTT1=
EXTT2=
EXTT3=
EXTT4=
EXTT5=
EXTT6=
EXTT7=
EXTT8=
EXTT9=
EXTT10=
EXTT11=
EXTT12=
EXTT13=
EXTT14=
EXTT15=
EXTT16=
EXTT17=
PLAYORDER=
